<svg width="301" height="90" viewBox="0 0 301 90" fill="none" xmlns="http://www.w3.org/2000/svg">
<path d="M91.4498 76.6757C91.4498 78.2992 90.9103 78.8415 89.2819 78.8415H84.5112C82.8861 78.8415 82.3433 78.2992 82.3433 76.6757V26.8509C82.3433 25.2274 82.8827 24.6852 84.5112 24.6852H89.2819C90.9069 24.6852 91.4498 25.2274 91.4498 26.8509V28.3665C93.0748 26.1975 95.5731 24.4662 99.474 24.2507C104.137 24.1429 108.257 25.7663 110.86 29.7744C112.377 28.151 116.281 24.4662 122.026 24.2507C130.158 23.9273 136.554 29.3399 136.554 42.6643V76.6757C136.554 78.2992 136.015 78.8415 134.386 78.8415H129.615C127.99 78.8415 127.448 78.2992 127.448 76.6757V40.9297C127.448 34.4326 123.651 32.698 120.725 32.698C117.798 32.698 114.002 34.4326 114.002 40.9297V76.6757C114.002 78.2992 113.462 78.8415 111.834 78.8415H107.063C105.438 78.8415 104.895 78.2992 104.895 76.6757V40.9297C104.895 34.4326 101.099 32.698 98.1726 32.698C95.2461 32.698 91.4498 34.4326 91.4498 40.9297V76.6757Z" fill="#95BFD0"/>
<path d="M178.276 58.912C178.276 73.8598 169.712 78.8412 162.012 78.8412C154.315 78.8412 145.748 73.8598 145.748 58.912V43.7486C145.748 28.8008 154.311 23.8193 162.012 23.8193C169.709 23.8193 178.276 28.8042 178.276 43.7486V58.912ZM162.015 32.2666C158.873 32.2666 154.861 34.2168 154.861 41.1484V61.5122C154.861 68.4438 158.873 70.3939 162.015 70.3939C165.161 70.3939 169.173 68.4438 169.173 61.5122V41.1484C169.17 34.2168 165.161 32.2666 162.015 32.2666Z" fill="#95BFD0"/>
<path d="M186.937 43.7486C186.937 28.8008 195.501 23.8193 203.202 23.8193C210.899 23.8193 219.466 28.8042 219.466 43.7486V51.0069C219.466 52.7415 218.923 53.1727 217.187 53.1727H198.212C196.587 53.1727 196.041 53.7149 196.041 55.3384V61.8389C196.041 67.5815 199.294 70.3973 203.198 70.3973C206.995 70.3973 210.029 67.6893 210.245 63.139C210.353 61.2966 210.572 60.3232 212.416 60.3232H216.752C218.377 60.3232 218.809 60.8655 218.92 62.4889C219.247 68.6627 214.692 78.8446 203.198 78.8446C195.501 78.8446 186.934 73.8631 186.934 58.9153V43.7486H186.937V43.7486ZM203.198 32.2666C199.297 32.2666 196.041 35.0824 196.041 40.8217V42.9874C196.041 44.6108 196.583 45.1531 198.212 45.1531H208.185C209.813 45.1531 210.356 44.6108 210.356 42.9874V40.8217C210.356 35.0824 207.103 32.2666 203.198 32.2666Z" fill="#95BFD0"/>
<path d="M244.389 70.3901C246.014 70.609 246.56 70.9323 246.56 72.5591V76.675C246.56 78.2984 246.018 78.8407 244.389 78.8407C233.762 78.6252 229.318 73.8559 229.211 59.7771V34.8629C229.211 33.9973 228.991 33.7818 228.125 33.7818C226.5 33.7818 225.957 33.2395 225.957 31.6161V27.9313C225.957 26.3079 226.496 25.7656 228.125 25.7656C228.991 25.7656 229.211 25.5467 229.211 24.6811V15.257C229.211 13.6336 229.75 13.0913 231.378 13.0913H236.149C237.774 13.0913 238.317 13.6336 238.317 15.257V24.6811C238.317 25.5467 238.536 25.7656 239.403 25.7656H242.113C243.738 25.7656 244.281 26.3045 244.281 27.9313V31.6161C244.281 33.2395 243.742 33.7818 242.113 33.7818H239.403C238.536 33.7818 238.317 33.9973 238.317 34.8629V59.8848C238.317 67.5743 239.511 69.8512 244.389 70.3901Z" fill="#95BFD0"/>
<path d="M283.11 62.1588C283.869 71.0406 276.499 78.8412 267.389 78.8412C257.308 78.8412 251.56 70.0672 251.56 63.6779C251.56 62.0544 252.102 61.5122 253.731 61.5122H258.286C259.911 61.5122 260.454 62.0544 260.454 63.6779C260.562 67.0359 263.384 70.3939 267.392 70.3939C270.862 70.3939 273.572 67.9015 274.223 65.0858C276.934 53.6038 253.95 52.4115 253.296 38.3326C252.864 29.882 259.803 23.8193 267.392 23.8193C275.197 23.8193 281.381 30.5354 281.381 38.6593C281.381 40.2828 280.841 40.8251 279.213 40.8251H274.985C273.464 40.8251 272.925 40.3906 272.814 38.2249C272.706 34.6513 270.319 32.1588 266.849 32.2666C264.031 32.3744 261.863 34.8668 261.967 37.7904C262.294 45.8032 281.92 48.1878 283.11 62.1588Z" fill="#95BFD0"/>
<path d="M295.353 9.30273C298.279 9.30273 300.663 11.5762 300.663 14.5031C300.663 17.4267 298.279 19.808 295.353 19.808C292.423 19.808 290.147 17.4267 290.147 14.5031C290.147 11.5762 292.423 9.30273 295.353 9.30273ZM290.798 76.6756V26.8507C290.798 25.2273 291.337 24.685 292.966 24.685H297.736C299.361 24.685 299.904 25.2273 299.904 26.8507V76.6756C299.904 78.299 299.365 78.8413 297.736 78.8413H292.966C291.34 78.8413 290.798 78.299 290.798 76.6756Z" fill="#95BFD0"/>
<path d="M34.4844 31.3234C38.5735 31.3234 41.8883 28.0119 41.8883 23.9269C41.8883 19.842 38.5735 16.5305 34.4844 16.5305C30.3954 16.5305 27.0806 19.842 27.0806 23.9269C27.0806 28.0119 30.3954 31.3234 34.4844 31.3234Z" fill="#95BFD0"/>
<path d="M13.723 63.0451C16.1324 60.6381 16.1324 56.7355 13.723 54.3284C11.3135 51.9214 7.40697 51.9214 4.9975 54.3284C2.58803 56.7355 2.58803 60.6381 4.9975 63.0451C7.40697 65.4522 11.3135 65.4522 13.723 63.0451Z" fill="#AAD485"/>
<path d="M59.6084 64.8467C63.0159 64.8467 65.7783 62.0871 65.7783 58.683C65.7783 55.2789 63.0159 52.5193 59.6084 52.5193C56.2008 52.5193 53.4385 55.2789 53.4385 58.683C53.4385 62.0871 56.2008 64.8467 59.6084 64.8467Z" fill="#AAD485"/>
<path d="M47.2382 76.2586C49.9642 76.2586 52.1741 74.051 52.1741 71.3277C52.1741 68.6044 49.9642 66.3967 47.2382 66.3967C44.5121 66.3967 42.3022 68.6044 42.3022 71.3277C42.3022 74.051 44.5121 76.2586 47.2382 76.2586Z" fill="#95BFD0"/>
<path d="M21.7194 50.1248C26.49 50.1248 30.3573 46.2614 30.3573 41.4956C30.3573 36.7299 26.49 32.8665 21.7194 32.8665C16.9488 32.8665 13.0815 36.7299 13.0815 41.4956C13.0815 46.2614 16.9488 50.1248 21.7194 50.1248Z" fill="#AAD485"/>
<path d="M34.48 66.0792C38.5691 66.0792 41.8839 62.7677 41.8839 58.6828C41.8839 54.5979 38.5691 51.2864 34.48 51.2864C30.391 51.2864 27.0762 54.5979 27.0762 58.6828C27.0762 62.7677 30.391 66.0792 34.48 66.0792Z" fill="#AAD485"/>
<path d="M21.7196 76.2652C24.4456 76.2652 26.6555 74.0576 26.6555 71.3343C26.6555 68.611 24.4456 66.4033 21.7196 66.4033C18.9936 66.4033 16.7837 68.611 16.7837 71.3343C16.7837 74.0576 18.9936 76.2652 21.7196 76.2652Z" fill="#95BFD0"/>
<path d="M53.3464 47.5939C56.7197 44.224 56.7197 38.7604 53.3464 35.3905C49.9732 32.0206 44.504 32.0206 41.1308 35.3905C37.7575 38.7604 37.7575 44.224 41.1308 47.5939C44.504 50.9637 49.9732 50.9637 53.3464 47.5939Z" fill="#AAD485"/>
<path d="M34.4779 86.1234C37.2039 86.1234 39.4138 83.9157 39.4138 81.1924C39.4138 78.4691 37.2039 76.2615 34.4779 76.2615C31.7519 76.2615 29.542 78.4691 29.542 81.1924C29.542 83.9157 31.7519 86.1234 34.4779 86.1234Z" fill="#95BFD0"/>
</svg>
