<svg width="758" height="844" viewBox="0 0 758 844" fill="none" xmlns="http://www.w3.org/2000/svg">
<path d="M378.963 179.413C428.485 179.413 468.63 139.25 468.63 89.7064C468.63 40.1629 428.485 0 378.963 0C329.442 0 289.297 40.1629 289.297 89.7064C289.297 139.25 329.442 179.413 378.963 179.413Z" fill="#95BFD0"/>
<path d="M127.551 564.097C156.731 534.903 156.731 487.571 127.551 458.378C98.3703 429.184 51.0594 429.184 21.8789 458.378C-7.30157 487.571 -7.30156 534.903 21.8789 564.097C51.0594 593.29 98.3703 593.29 127.551 564.097Z" fill="#AAD485"/>
<path d="M683.277 585.991C724.545 585.991 757.999 552.522 757.999 511.235C757.999 469.949 724.545 436.48 683.277 436.48C642.009 436.48 608.555 469.949 608.555 511.235C608.555 552.522 642.009 585.991 683.277 585.991Z" fill="#AAD485"/>
<path d="M533.473 724.394C566.487 724.394 593.251 697.619 593.251 664.59C593.251 631.561 566.487 604.785 533.473 604.785C500.459 604.785 473.695 631.561 473.695 664.59C473.695 697.619 500.459 724.394 533.473 724.394Z" fill="#95BFD0"/>
<path d="M224.412 407.397C282.187 407.397 329.023 360.54 329.023 302.739C329.023 244.939 282.187 198.082 224.412 198.082C166.637 198.082 119.801 244.939 119.801 302.739C119.801 360.54 166.637 407.397 224.412 407.397Z" fill="#AAD485"/>
<path d="M378.963 600.941C428.485 600.941 468.63 560.778 468.63 511.235C468.63 461.691 428.485 421.529 378.963 421.529C329.442 421.529 289.297 461.691 289.297 511.235C289.297 560.778 329.442 600.941 378.963 600.941Z" fill="#AAD485"/>
<path d="M224.367 724.434C257.382 724.434 284.145 697.659 284.145 664.63C284.145 631.601 257.382 604.825 224.367 604.825C191.353 604.825 164.59 631.601 164.59 664.63C164.59 697.659 191.353 724.434 224.367 724.434Z" fill="#95BFD0"/>
<path d="M607.419 376.707C648.272 335.836 648.272 269.571 607.419 228.7C566.566 187.829 500.331 187.829 459.478 228.7C418.625 269.571 418.625 335.836 459.478 376.707C500.331 417.578 566.566 417.578 607.419 376.707Z" fill="#AAD485"/>
<path d="M378.918 844C411.933 844 438.696 817.225 438.696 784.196C438.696 751.167 411.933 724.392 378.918 724.392C345.904 724.392 319.141 751.167 319.141 784.196C319.141 817.225 345.904 844 378.918 844Z" fill="#95BFD0"/>
</svg>
